<svg id="Layer_1" data-name="Layer 1" xmlns="http://www.w3.org/2000/svg" viewBox="0 0 154.58 137.61"><defs><style>.cls-1{fill:#e93825;}</style></defs><title>Artboard 2 copy</title><path class="cls-1" d="M118.79,104.21a14.92,14.92,0,1,1,0,29.83Q92.48,134,66,94.48A102.71,102.71,0,0,0,56,108.25,45.14,45.14,0,0,0,50.42,122a14.22,14.22,0,0,1-5.18,8.7A14.55,14.55,0,0,1,35.92,134a11.12,11.12,0,0,1-1.55-.1,10.84,10.84,0,0,0-1.55-.1,15.29,15.29,0,0,1-9.43-6.53,14,14,0,0,1-2.18-11.08,73.82,73.82,0,0,1,10.88-25.9,183.54,183.54,0,0,1,18.33-23.2q-3.53-7-6.63-14.19T38.3,39.27q-2.38-6.53-3.83-11.91A35.58,35.58,0,0,1,33,18.45,14.38,14.38,0,0,1,37.37,7.88,14.38,14.38,0,0,1,47.94,3.53,14.23,14.23,0,0,1,58.4,7.78,15.6,15.6,0,0,1,63.06,18,80.32,80.32,0,0,0,66,27.87a158.34,158.34,0,0,0,7.25,17.3,1.11,1.11,0,0,1,.41-.52,2.94,2.94,0,0,0,.62-.52q4.35-4.14,9-8.39t8.49-8.29a100,100,0,0,0,6.63-7.66,26.52,26.52,0,0,0,3.83-6.32A14.58,14.58,0,0,1,109.78,5a14,14,0,0,1,11.29-.62,14.77,14.77,0,0,1,9.32,19.06Q126.66,34,116.82,44.34T94.55,66.1q-1.66,1.66-3.42,3.21l-3.63,3.21A133.67,133.67,0,0,0,98.07,88a86.74,86.74,0,0,0,9,9.74,32,32,0,0,0,7,5.08A11.8,11.8,0,0,0,118.79,104.21Z"/></svg>