<?xml version="1.0" encoding="utf-8"?>
<!-- Generator: Adobe Illustrator 21.1.0, SVG Export Plug-In . SVG Version: 6.00 Build 0)  -->
<svg version="1.1" id="Layer_1" xmlns="http://www.w3.org/2000/svg" xmlns:xlink="http://www.w3.org/1999/xlink" x="0px" y="0px"
	 viewBox="0 0 237 204" style="enable-background:new 0 0 237 204;" xml:space="preserve">
<style type="text/css">
	.st0{fill:#FCB316;}
</style>
<g>
	<path class="st0" d="M12.7,191.3C4.2,182.9,0,172.8,0,161v-45.2c0-49.1,21-86.4,62.9-112c3.6-2.6,7.9-3.8,13-3.8
		c6.1,0,11.4,2.3,15.7,6.9c4.3,4.6,6.5,10,6.5,16.1c0,8.2-3.8,14.6-11.5,19.2C73.9,49.8,64.2,58.8,57.5,69
		c-6.7,10.2-10,25.1-10,44.5h3.1c11.8,0,21.9,4.2,30.3,12.7c8.4,8.4,12.7,18.5,12.7,30.3v4.6c0,11.8-4.2,21.9-12.7,30.3
		c-8.4,8.4-18.5,12.7-30.3,12.7h-7.7C31.2,204,21.1,199.8,12.7,191.3z M151.5,191.3c-8.4-8.4-12.7-18.5-12.7-30.3v-45.2
		c0-49.1,21-86.4,62.9-112c3.6-2.6,7.9-3.8,13-3.8c6.1,0,11.4,2.3,15.7,6.9c4.3,4.6,6.5,10,6.5,16.1c0,8.2-3.8,14.6-11.5,19.2
		C212.7,49.8,203,58.8,196.3,69c-6.7,10.2-10,25.1-10,44.5h3.1c11.8,0,21.9,4.2,30.3,12.7c8.4,8.4,12.7,18.5,12.7,30.3v4.6
		c0,11.8-4.2,21.9-12.7,30.3c-8.4,8.4-18.5,12.7-30.3,12.7h-7.7C170,204,159.9,199.8,151.5,191.3z"/>
</g>
</svg>
