<svg id="Layer_1" data-name="Layer 1" xmlns="http://www.w3.org/2000/svg" viewBox="0 0 154.58 137.61"><defs><style>.cls-1{fill:#a9cf38;}</style></defs><title>Artboard 2</title><path class="cls-1" d="M1.83,75.83a279.68,279.68,0,0,0,37.32,57.41c5.8,7,19.76,5.32,23.56-3A279.14,279.14,0,0,1,144.43,25.47c6.34-5.05,5.28-15.94,0-21.21-6.26-6.26-14.86-5.07-21.21,0A303.08,303.08,0,0,0,36.81,115.07l23.56-3A252.66,252.66,0,0,1,27.74,60.69c-3.52-7.3-13.93-9.24-20.52-5.38C-.24,59.67-1.7,68.51,1.83,75.83Z"/></svg>