<?xml version="1.0" encoding="utf-8"?>
<!-- Generator: Adobe Illustrator 21.1.0, SVG Export Plug-In . SVG Version: 6.00 Build 0)  -->
<svg version="1.1" id="Layer_1" xmlns="http://www.w3.org/2000/svg" xmlns:xlink="http://www.w3.org/1999/xlink" x="0px" y="0px"
	 viewBox="0 0 364.3 322.1" style="enable-background:new 0 0 364.3 322.1;" xml:space="preserve">
<style type="text/css">
	.st0{fill:#D9EBF9;}
	.st1{fill:#E75245;}
	.st2{fill:#9EC1A2;}
	.st3{fill:#FFCB52;}
	.st4{fill:#F8FBFE;}
	.st5{fill:none;stroke:#F8FBFE;stroke-width:2;stroke-miterlimit:10;}
	.st6{fill:#3F5FAC;}
	.st7{fill:none;stroke:#3F5FAC;stroke-width:4;stroke-linecap:round;stroke-miterlimit:10;}
	.st8{fill:none;stroke:#3F5FAC;stroke-width:0.5;stroke-miterlimit:10;}
	.st9{fill:none;stroke:#FFFFFF;stroke-width:3;stroke-miterlimit:10;}
	.st10{fill:none;stroke:#FFFFFF;stroke-width:4.16;stroke-miterlimit:10;}
</style>
<title>Artboard 1</title>
<path class="st0" d="M326.7,0H37.6C16.8,0,0,16.8,0,37.6c0,0,0,0,0,0v280.2c0,2.4,1.9,4.3,4.3,4.3c0,0,0,0,0,0h21.2
	c2.4,0,4.3-1.9,4.3-4.3l0,0V45.4c0-4,3.2-7.2,7.1-7.2h311.5c4,0,7.2,3.2,7.2,7.2l0,0v272.5c0,2.4,1.9,4.3,4.3,4.3l0,0l0,0
	c2.4,0,4.3-1.9,4.3-4.3l0,0V37.6C364.3,16.8,347.5,0,326.7,0z"/>
<circle class="st1" cx="36.2" cy="21.2" r="6.4"/>
<circle class="st2" cx="91.7" cy="21.2" r="6.4"/>
<circle class="st3" cx="64" cy="21.2" r="6.4"/>
<circle class="st3" cx="14.9" cy="67.7" r="10.2"/>
<path class="st4" d="M15.5,63.3v4.3h4.1v1.1h-4.1V73h-1.2v-4.3h-4.1v-1.1h4.1v-4.3H15.5z"/>
<circle class="st3" cx="14.9" cy="111.2" r="10.2"/>
<path class="st4" d="M12.8,106.6l1.3,2c0.3,0.5,0.6,1,0.9,1.5l0,0c0.3-0.5,0.6-1,0.9-1.5l1.3-1.9H19l-3.1,4.3l3.2,4.7h-1.9l-1.3-2
	c-0.4-0.5-0.7-1-1-1.6l0,0c-0.3,0.5-0.6,1-1,1.6l-1.3,2h-1.8l3.2-4.6l-3.1-4.4H12.8z"/>
<circle class="st3" cx="14.9" cy="154.7" r="10.2"/>
<circle class="st5" cx="14.9" cy="154.7" r="4.9"/>
<path class="st6" d="M223.2,155l-0.2-15.3c0-0.6,0.4-1,1-1l15,0"/>
<line class="st7" x1="230.2" y1="145.4" x2="239.6" y2="154.2"/>
<rect x="96.1" y="77.8" class="st8" width="121.9" height="59.7"/>
<line class="st9" x1="105.2" y1="73.2" x2="105.2" y2="142.1"/>
<line class="st9" x1="115.5" y1="73.2" x2="115.5" y2="142.1"/>
<line class="st9" x1="125.9" y1="73.2" x2="125.9" y2="142.1"/>
<line class="st9" x1="136.3" y1="73.2" x2="136.3" y2="142.1"/>
<line class="st9" x1="146.7" y1="73.2" x2="146.7" y2="142.1"/>
<line class="st9" x1="157" y1="73.2" x2="157" y2="142.1"/>
<line class="st9" x1="167.4" y1="73.2" x2="167.4" y2="142.1"/>
<line class="st9" x1="177.8" y1="73.2" x2="177.8" y2="142.1"/>
<line class="st9" x1="188.2" y1="73.2" x2="188.2" y2="142.1"/>
<line class="st9" x1="198.5" y1="73.2" x2="198.5" y2="142.1"/>
<line class="st9" x1="208.9" y1="73.2" x2="208.9" y2="142.1"/>
<line class="st10" x1="222.1" y1="82.1" x2="89.7" y2="82.1"/>
<line class="st10" x1="222.1" y1="92.5" x2="89.7" y2="92.5"/>
<line class="st10" x1="222.1" y1="102.9" x2="89.7" y2="102.9"/>
<line class="st10" x1="222.1" y1="113.2" x2="89.7" y2="113.2"/>
<line class="st10" x1="222.1" y1="123.6" x2="89.7" y2="123.6"/>
<line class="st10" x1="222.1" y1="134" x2="89.7" y2="134"/>
</svg>
