<svg id="Layer_1" data-name="Layer 1" xmlns="http://www.w3.org/2000/svg" viewBox="0 0 364.29 322.13"><defs><style>.cls-1{fill:#d9ebf9;}.cls-2{fill:#f8fbfe;}.cls-3{fill:#e75245;}.cls-4{fill:#9ec1a2;}.cls-5{fill:#ffcb52;}.cls-10,.cls-11,.cls-6,.cls-8,.cls-9{fill:none;stroke-miterlimit:10;}.cls-10,.cls-11,.cls-6{stroke:#f8fbfe;}.cls-6{stroke-width:2px;}.cls-7{fill:#3f5fac;}.cls-8,.cls-9{stroke:#3f5fac;}.cls-8{stroke-linecap:round;stroke-width:4px;}.cls-9{stroke-width:0.5px;}.cls-10{stroke-width:3px;}.cls-11{stroke-width:4.16px;}</style></defs><title>Artboard 1</title><path class="cls-1" d="M326.68,0H37.62A37.62,37.62,0,0,0,0,37.62v280.2a4.32,4.32,0,0,0,4.32,4.32H25.53a4.32,4.32,0,0,0,4.32-4.32V45.36A7.19,7.19,0,0,1,37,38.17H348.46a7.19,7.19,0,0,1,7.19,7.19V317.82a4.32,4.32,0,0,0,4.32,4.32h0a4.32,4.32,0,0,0,4.32-4.32V37.62A37.62,37.62,0,0,0,326.68,0Z"/><path class="cls-2" d="M348.46,38.17H37a7.19,7.19,0,0,0-7.19,7.19V317.82a4.32,4.32,0,0,0,4.32,4.32H351.33a4.32,4.32,0,0,0,4.32-4.32V45.36A7.19,7.19,0,0,0,348.46,38.17Z"/><circle class="cls-3" cx="36.23" cy="21.21" r="6.38"/><circle class="cls-4" cx="91.73" cy="21.21" r="6.38"/><circle class="cls-5" cx="63.98" cy="21.21" r="6.38"/><circle class="cls-5" cx="14.94" cy="67.67" r="10.16"/><path class="cls-2" d="M15.53,63.3v4.3h4.14v1.1H15.53V73H14.36V68.7H10.22V67.6h4.14V63.3Z"/><circle class="cls-5" cx="14.94" cy="111.17" r="10.16"/><path class="cls-2" d="M12.78,106.62l1.3,2c.34.51.62,1,.92,1.48H15c.3-.54.6-1,.9-1.5l1.28-1.93H19L15.91,111l3.19,4.69H17.23l-1.33-2c-.36-.53-.66-1-1-1.58h0c-.3.54-.62,1-1,1.58l-1.31,2H10.79L14,111.07l-3.08-4.45Z"/><circle class="cls-5" cx="14.94" cy="154.67" r="10.16"/><circle class="cls-6" cx="14.94" cy="154.67" r="4.92"/><polyline class="cls-7" points="223.58 154.67 223.07 138.68 239.05 138.16"/><line class="cls-8" x1="230.22" y1="145.39" x2="239.62" y2="154.2"/><rect class="cls-9" x="96.11" y="77.83" width="121.92" height="59.72"/><line class="cls-10" x1="105.16" y1="73.24" x2="105.16" y2="142.07"/><line class="cls-10" x1="115.53" y1="73.24" x2="115.53" y2="142.07"/><line class="cls-10" x1="125.91" y1="73.24" x2="125.91" y2="142.07"/><line class="cls-10" x1="136.28" y1="73.24" x2="136.28" y2="142.07"/><line class="cls-10" x1="146.66" y1="73.24" x2="146.66" y2="142.07"/><line class="cls-10" x1="157.03" y1="73.24" x2="157.03" y2="142.07"/><line class="cls-10" x1="167.41" y1="73.24" x2="167.41" y2="142.07"/><line class="cls-10" x1="177.78" y1="73.24" x2="177.78" y2="142.07"/><line class="cls-10" x1="188.16" y1="73.24" x2="188.16" y2="142.07"/><line class="cls-10" x1="198.53" y1="73.24" x2="198.53" y2="142.07"/><line class="cls-10" x1="208.91" y1="73.24" x2="208.91" y2="142.07"/><line class="cls-11" x1="222.11" y1="82.12" x2="89.67" y2="82.12"/><line class="cls-11" x1="222.11" y1="92.5" x2="89.67" y2="92.5"/><line class="cls-11" x1="222.11" y1="102.87" x2="89.67" y2="102.87"/><line class="cls-11" x1="222.11" y1="113.25" x2="89.67" y2="113.25"/><line class="cls-11" x1="222.11" y1="123.62" x2="89.67" y2="123.62"/><line class="cls-11" x1="222.11" y1="134" x2="89.67" y2="134"/></svg>