<svg id="Layer_1" data-name="Layer 1" xmlns="http://www.w3.org/2000/svg" viewBox="0 0 587.97 670.47"><defs><style>.cls-1,.cls-2,.cls-3{fill:none;stroke-linecap:round;stroke-linejoin:round;stroke-width:29.44px;}.cls-1{stroke:#3f5fac;}.cls-2{stroke:#ffcb52;}.cls-3{stroke:#fcb316;}</style></defs><title>Artboard 1</title><polygon class="cls-1" points="258.43 277.25 408.81 341.7 556.8 277.25 407.62 214.39 258.43 277.25"/><polyline class="cls-1" points="407.62 549.37 408.81 341.7 556.8 277.25 556.8 486.51 407.62 549.37 258.43 483.33 258.43 313.85"/><polygon class="cls-2" points="24.66 373.56 175.04 438.01 323.04 373.56 173.85 310.7 24.66 373.56"/><polyline class="cls-2" points="173.85 645.68 175.04 438.01 323.04 373.56 323.04 582.82 173.85 645.68 24.66 579.64 24.66 410.16"/><polygon class="cls-3" points="69.66 99.45 220.04 163.9 368.04 99.45 218.85 36.59 69.66 99.45"/><polyline class="cls-3" points="218.85 371.57 220.04 163.9 368.04 99.45 368.04 308.71 218.85 371.57 69.66 305.53 69.66 136.05"/></svg>