<?xml version="1.0" encoding="utf-8"?>
<!-- Generator: Adobe Illustrator 21.1.0, SVG Export Plug-In . SVG Version: 6.00 Build 0)  -->
<svg version="1.1" id="Layer_1" xmlns="http://www.w3.org/2000/svg" xmlns:xlink="http://www.w3.org/1999/xlink" x="0px" y="0px"
	 viewBox="0 0 578 433" style="enable-background:new 0 0 578 433;" xml:space="preserve">
<style type="text/css">
	.st0{fill:#FFCA51;}
	.st1{fill:#FFFFFF;}
	.st2{fill:#487FFF;stroke:#FFFFFF;stroke-width:9;stroke-miterlimit:10;}
	.st3{fill:#F9FBFF;}
	.st4{fill:#FFCB51;}
	.st5{fill:#487FFF;}
</style>
<title>Artboard 1</title>
<path class="st0" d="M92.1,87.4h393.9c22.5,0,40.8,18.3,40.8,40.8v220.3c0,22.5-18.3,40.8-40.8,40.8H92.1
	c-22.5,0-40.8-18.3-40.8-40.8V128.2C51.3,105.6,69.5,87.4,92.1,87.4z"/>
<path class="st1" d="M120.1,117.6h337.8c19.3,0,35,15.7,35,35v188.9c0,19.3-15.7,35-35,35H120.1c-19.3,0-35-15.7-35-35V152.6
	C85.1,133.3,100.8,117.6,120.1,117.6z"/>
<path class="st0" d="M6.2,354h565.5c3.4,0,6.2,2.8,6.2,6.2v41c0,17.5-14.2,31.8-31.7,31.8c0,0,0,0,0,0H31.7
	C14.2,433,0,418.8,0,401.3c0,0,0,0,0,0v-41C0,356.8,2.8,354,6.2,354C6.2,354,6.2,354,6.2,354z"/>
<path class="st2" d="M289,4.5c-61.1,0-110.6,49.5-110.6,110.6c0,0,0,0,0,0c0,29.8,4.5,48.4,23.6,68.3c-0.8,26.4-37.6,42.8-37.6,42.8
	c35.2,3.5,73.4-7.5,80.1-13.5c14.3,7,24.9,12.1,43.5,12.1c61.1,0,111.5-48.6,111.5-109.7C399.6,54,350.1,4.5,289,4.5z"/>
<path class="st3" d="M229.7,147.8c-0.8-0.5-1.4-1.1-1.9-1.9c-0.5-0.8-0.7-1.8-0.6-2.8c-0.1-1.5,0.5-2.9,1.4-4
	c0.9-1.1,2.3-1.7,3.8-1.6c0.9,0,1.9,0.2,2.7,0.6c6.4,3.5,13.5,5.4,20.7,5.4c8.2,0,14.5-1.4,18.8-4.1s6.5-7.5,6.5-14.1
	c0-5.3-1.8-9.6-5.4-12.7s-8.5-4.7-14.7-4.7c-7.1,0-14,1.9-20,5.6c-0.2,0.1-0.7,0.4-1.5,0.8c-0.9,0.5-2,0.7-3,0.7
	c-2.2,0.1-4.4-0.7-6.1-2.1c-1.6-1.3-2.5-3.3-2.5-5.4c0-1,0.1-2.1,0.3-3.1l5.8-34.5c0.2-1.8,1-3.5,2.3-4.7c1.2-1.2,2.9-1.8,4.6-1.8
	h41.6c3.1,0,5.6,2.4,5.6,5.5c0,0,0,0.1,0,0.1c0,1.5-0.6,2.9-1.6,3.9c-1.1,1-2.5,1.6-4,1.6h-37.5l-4.2,27.4
	c6.7-3.6,14.3-5.4,21.9-5.3c5.7-0.2,11.4,1.1,16.4,3.8c4.4,2.4,8,6,10.3,10.4c2.4,4.7,3.6,9.9,3.5,15.2c0,8.7-3,15.8-8.9,21.2
	s-14.8,8.1-26.6,8.1C246.7,155.3,237.5,152.8,229.7,147.8z"/>
<polygon class="st4" points="332.1,80.8 341.4,99.6 362.2,102.7 347.2,117.3 350.7,138.1 332.1,128.3 313.5,138.1 317,117.3 
	302,102.7 322.8,99.6 "/>
<path class="st5" d="M125.4,250.9h107.3c2.3,0,4.1,1.8,4.1,4.1v2.8c0,2.3-1.8,4.1-4.1,4.1H125.4c-2.3,0-4.1-1.8-4.1-4.1V255
	C121.3,252.8,123.2,250.9,125.4,250.9z"/>
<path class="st5" d="M123.1,270.8h82.8c1,0,1.8,0.8,1.8,1.8v0c0,1-0.8,1.8-1.8,1.8h-82.8c-1,0-1.8-0.8-1.8-1.8v0
	C121.3,271.5,122.1,270.8,123.1,270.8z"/>
<path class="st5" d="M123.1,283.8h82.8c1,0,1.8,0.8,1.8,1.8v0c0,1-0.8,1.8-1.8,1.8h-82.8c-1,0-1.8-0.8-1.8-1.8v0
	C121.3,284.6,122.1,283.8,123.1,283.8z"/>
<path class="st5" d="M123.1,296.9h82.8c1,0,1.8,0.8,1.8,1.8v0c0,1-0.8,1.8-1.8,1.8h-82.8c-1,0-1.8-0.8-1.8-1.8v0
	C121.3,297.7,122.1,296.9,123.1,296.9z"/>
<path class="st5" d="M343.6,270.8h82.8c1,0,1.8,0.8,1.8,1.8v0c0,1-0.8,1.8-1.8,1.8h-82.8c-1,0-1.8-0.8-1.8-1.8v0
	C341.9,271.5,342.7,270.8,343.6,270.8z"/>
<path class="st5" d="M343.6,283.8h82.8c1,0,1.8,0.8,1.8,1.8v0c0,1-0.8,1.8-1.8,1.8h-82.8c-1,0-1.8-0.8-1.8-1.8v0
	C341.9,284.6,342.7,283.8,343.6,283.8z"/>
<path class="st5" d="M343.6,296.9h82.8c1,0,1.8,0.8,1.8,1.8v0c0,1-0.8,1.8-1.8,1.8h-82.8c-1,0-1.8-0.8-1.8-1.8v0
	C341.9,297.7,342.7,296.9,343.6,296.9z"/>
<path class="st5" d="M346,250.9h107.3c2.3,0,4.1,1.8,4.1,4.1v2.8c0,2.3-1.8,4.1-4.1,4.1H346c-2.3,0-4.1-1.8-4.1-4.1V255
	C341.9,252.8,343.7,250.9,346,250.9z"/>
</svg>
