<svg id="Layer_1" data-name="Layer 1" xmlns="http://www.w3.org/2000/svg" viewBox="0 0 577.99 432.97"><defs><style>.cls-1{fill:#ffca51;}.cls-2{fill:#f9fcff;}.cls-3,.cls-6{fill:#487fff;}.cls-3{stroke:#f9fbff;stroke-miterlimit:10;stroke-width:9px;}.cls-4{fill:#f9fbff;}.cls-5{fill:#ffcb51;}</style></defs><title>Artboard 1</title><rect class="cls-1" x="51.26" y="87.37" width="475.47" height="301.89" rx="40.79" ry="40.79"/><rect class="cls-2" x="85.12" y="117.63" width="407.74" height="258.88" rx="34.98" ry="34.98"/><path class="cls-1" d="M6.22,354H571.76a6.22,6.22,0,0,1,6.22,6.22v41A31.73,31.73,0,0,1,546.26,433H31.73A31.73,31.73,0,0,1,0,401.24v-41A6.22,6.22,0,0,1,6.22,354Z"/><path class="cls-3" d="M289,4.5A110.61,110.61,0,0,0,178.38,115.11c0,29.8,4.48,48.45,23.64,68.34-.8,26.38-37.56,42.77-37.56,42.77,35.16,3.48,73.42-7.48,80.09-13.54,14.27,7,24.93,12.1,43.5,12.1,61.09,0,111.55-48.58,111.55-109.67A110.61,110.61,0,0,0,289,4.5Z"/><path class="cls-1" d="M544.49,398.69A48.67,48.67,0,0,0,548.05,417c1.19,2.94,6,1.66,4.82-1.33a45,45,0,0,1-3.38-17c0-3.22-5-3.22-5,0Z"/><path class="cls-4" d="M229.66,147.78a7.31,7.31,0,0,1-1.94-1.88,5,5,0,0,1-.65-2.79,5.77,5.77,0,0,1,1.42-4,4.77,4.77,0,0,1,3.76-1.62,6,6,0,0,1,2.72.65,43.75,43.75,0,0,0,20.73,5.44q12.31,0,18.79-4.15T281,125.36q0-8-5.38-12.7T260.89,108a37.84,37.84,0,0,0-20,5.57q-.26.13-1.49.84a6,6,0,0,1-3,.71,9.13,9.13,0,0,1-6.09-2.07,6.77,6.77,0,0,1-2.46-5.44,18.77,18.77,0,0,1,.26-3.11L233.93,70a7.55,7.55,0,0,1,2.27-4.73,6.5,6.5,0,0,1,4.6-1.75h41.6A5.53,5.53,0,0,1,288,69.12,5.17,5.17,0,0,1,286.35,73a5.49,5.49,0,0,1-4,1.56H244.82L240.67,102a45.38,45.38,0,0,1,21.9-5.31A33.45,33.45,0,0,1,279,100.48a25.09,25.09,0,0,1,10.3,10.37,31.92,31.92,0,0,1,3.5,15.16q0,13.09-8.94,21.19t-26.57,8.1Q241.45,155.29,229.66,147.78Z"/><polygon class="cls-5" points="332.11 80.78 341.41 99.63 362.22 102.66 347.16 117.33 350.72 138.06 332.11 128.27 313.5 138.06 317.05 117.33 302 102.66 322.8 99.63 332.11 80.78"/><rect class="cls-6" x="121.32" y="250.91" width="115.5" height="10.97" rx="4.11" ry="4.11"/><rect class="cls-6" x="121.32" y="270.75" width="86.3" height="3.54" rx="1.77" ry="1.77"/><rect class="cls-6" x="121.32" y="283.82" width="86.3" height="3.54" rx="1.77" ry="1.77"/><rect class="cls-6" x="121.32" y="296.89" width="86.3" height="3.54" rx="1.77" ry="1.77"/><rect class="cls-6" x="341.86" y="270.75" width="86.3" height="3.54" rx="1.77" ry="1.77"/><rect class="cls-6" x="341.86" y="283.82" width="86.3" height="3.54" rx="1.77" ry="1.77"/><rect class="cls-6" x="341.86" y="296.89" width="86.3" height="3.54" rx="1.77" ry="1.77"/><rect class="cls-6" x="341.86" y="250.91" width="115.5" height="10.97" rx="4.11" ry="4.11"/></svg>