<?xml version="1.0" encoding="utf-8"?>
<!-- Generator: Adobe Illustrator 21.1.0, SVG Export Plug-In . SVG Version: 6.00 Build 0)  -->
<svg version="1.1" id="Layer_1" xmlns="http://www.w3.org/2000/svg" xmlns:xlink="http://www.w3.org/1999/xlink" x="0px" y="0px"
	 viewBox="0 0 689.6 263" style="enable-background:new 0 0 689.6 263;" xml:space="preserve">
<style type="text/css">
	.st0{fill:#FFFFFF;}
	.st1{fill:#487FFF;}
	.st2{fill:#044FFF;}
	.st3{enable-background:new    ;}
	.st4{fill:#FFCB51;}
</style>
<title>Artboard 1</title>
<ellipse transform="matrix(0.7725 -0.635 0.635 0.7725 -118.6903 100.942)" class="st0" cx="81.5" cy="216.1" rx="13.1" ry="6.3"/>
<ellipse transform="matrix(0.7071 -0.7071 0.7071 0.7071 -56.5167 151.6625)" class="st1" cx="154.8" cy="144.1" rx="107.5" ry="107.5"/>
<circle class="st2" cx="160" cy="87.2" r="16"/>
<circle class="st2" cx="138" cy="148.6" r="10.5"/>
<circle class="st2" cx="207.7" cy="208" r="12.5"/>
<circle class="st2" cx="159.8" cy="234.8" r="6.3"/>
<circle class="st2" cx="92.4" cy="107.8" r="5.4"/>
<circle class="st2" cx="73.8" cy="165.2" r="6.3"/>
<circle class="st2" cx="244.5" cy="156.8" r="8.2"/>
<g class="st3">
	<path class="st4" d="M371,130h-26.3l-9.8-22.2h-5.1V130h-23.9V55.2h37.7c17.1,0,25.7,8.7,25.7,26.2c0,12-3.7,19.9-11.1,23.7
		L371,130z M329.7,74.4v15h5.5c2.9,0,5-0.3,6.3-0.9c1.3-0.6,2-2,2-4.1v-4.9c0-2.2-0.7-3.5-2-4.1c-1.3-0.6-3.4-0.9-6.3-0.9H329.7z"/>
	<path class="st4" d="M384.4,123.9c-5-5.2-7.5-13.2-7.5-23.9c0-10.7,2.5-18.6,7.5-23.9c5-5.2,13.1-7.8,24.2-7.8
		c11.2,0,19.2,2.6,24.2,7.8c5,5.2,7.5,13.2,7.5,23.9c0,10.7-2.5,18.6-7.5,23.9c-5,5.2-13.1,7.8-24.2,7.8
		C397.5,131.8,389.4,129.2,384.4,123.9z M402.7,90.9v23.4h3.7c2.9,0,5-0.3,6.3-0.9s2-2,2-4.1V85.8h-3.7c-2.9,0-5,0.3-6.3,0.9
		C403.3,87.3,402.7,88.7,402.7,90.9z"/>
	<path class="st4" d="M493.8,112l1.4,17.2c-4.1,1.7-9.5,2.5-16,2.5c-11.2,0-19.2-2.6-24.2-7.8c-5-5.2-7.5-13.2-7.5-23.9
		c0-10.7,2.5-18.6,7.5-23.9c5-5.2,13.1-7.8,24.2-7.8c6.9,0,12.3,0.8,16,2.5l-2.9,16.3c-4.2-0.9-7.6-1.3-10-1.3
		c-6.1,0-9.1,2.1-9.1,6.3v21.4c2.3,0.5,5.3,0.7,8.9,0.7C485.8,114.3,489.7,113.6,493.8,112z"/>
	<path class="st4" d="M538.8,130l-9.2-23.7h-0.8V130h-23.9V52.2l23.9-1.8v39.5h0.8l8.6-19.7H564l-13.9,28.5l14.5,31.3H538.8z"/>
	<path class="st4" d="M595.1,109.6v4.2c2.4,0.2,4.8,0.4,7.2,0.4c7.4,0,14.9-1.2,22.5-3.6l2.9,17.6c-8.9,2.4-17.8,3.6-26.6,3.6
		c-11.2,0-19.2-2.6-24.2-7.8c-5-5.2-7.5-13.2-7.5-23.9c0-10.7,2.5-18.6,7.5-23.9c5-5.2,13-7.8,24.2-7.8c11.1,0,18.8,1.5,23,4.5
		c4.2,3,6.3,8.7,6.3,17c0,7-2.5,12.1-7.6,15.1C617.7,108.1,608.5,109.6,595.1,109.6z M595.1,90.9v4.9h4.9c2.9,0,5-0.3,6.3-0.9
		c1.3-0.6,2-2,2-4.1v-4.9h-4.9c-2.9,0-5,0.3-6.3,0.9C595.8,87.3,595.1,88.7,595.1,90.9z"/>
	<path class="st4" d="M635.8,85.6V70.2h6v-9.6l23.9-6v15.6h8.3v15.4h-8.3v27.3c2.1,0.4,4.4,0.7,7.1,0.8l-1.1,17.6
		c-10.9,0-18-0.6-21.3-1.8c-4.1-1.4-6.6-3.3-7.7-5.7c-0.6-1.4-1-3.1-1-5V85.6H635.8z"/>
</g>
<g class="st3">
	<path class="st4" d="M302.8,227.1l3.3-19.7c7.3,1.8,13.9,2.8,19.8,2.8c5.9,0,10.6-0.2,14.2-0.7v-6l-10.8-1c-9.7-0.9-16.4-3.2-20-7
		c-3.6-3.8-5.4-9.4-5.4-16.8c0-10.2,2.2-17.2,6.6-21.1c4.4-3.8,11.9-5.7,22.5-5.7c10.6,0,20.2,1,28.7,3l-3,19.1
		c-7.4-1.2-13.4-1.8-17.8-1.8c-4.5,0-8.3,0.2-11.4,0.6v5.9l8.6,0.8c10.4,1,17.7,3.5,21.7,7.5c4,3.9,6,9.4,6,16.4c0,5-0.7,9.3-2,12.7
		c-1.4,3.5-3,6.1-4.8,7.9c-1.9,1.8-4.5,3.2-8,4.1c-3.4,1-6.4,1.5-9,1.7c-2.6,0.2-6,0.3-10.3,0.3
		C321.2,230.2,311.6,229.2,302.8,227.1z"/>
	<path class="st4" d="M371.2,184.1v-15.4h6v-9.6l23.9-6v15.6h8.3v15.4h-8.3v27.3c2.1,0.4,4.4,0.7,7.1,0.8l-1.1,17.6
		c-10.9,0-18-0.6-21.3-1.8c-4.1-1.4-6.6-3.3-7.7-5.7c-0.6-1.4-1-3.1-1-5v-33.1H371.2z"/>
	<path class="st4" d="M441.1,168.6v44.1h3.7c2.9,0,5-0.3,6.3-0.9s2-2,2-4.1v-39.1h23.9v59.8h-12l-6.9-6.8
		c-4.8,5.7-11.6,8.6-20.5,8.6c-7.1,0-12.3-1.5-15.6-4.5c-3.3-3-4.9-8.1-4.9-15.2v-41.9H441.1z"/>
	<path class="st4" d="M548.1,228.4h-12l-5.1-5c-3.5,4.5-9.8,6.8-18.8,6.8c-4.9,0-9.1-0.9-12.6-2.8c-3.5-1.8-6.2-4.3-8-7.5
		c-3.4-6-5.1-13.1-5.1-21.4c0-10.1,2.2-17.8,6.7-23c1.7-2,4-3.6,6.9-5c3-1.3,6.4-2,10.3-2h13.8v-17.9l23.9-1.8V228.4z M512.2,189.3
		v23.4h3.7c2.7,0,4.7-0.3,6-0.8c1.3-0.5,2.1-1.7,2.2-3.5v-24.2h-3.7c-2.9,0-5,0.3-6.3,0.9C512.9,185.8,512.2,187.2,512.2,189.3z"/>
	<path class="st4" d="M561.4,164.8c-1.8-1.4-2.7-3.8-2.7-7.4c0-3.6,0.9-6.1,2.7-7.5c1.8-1.4,5.3-2.2,10.6-2.2
		c5.3,0,8.9,0.7,10.6,2.2c1.8,1.4,2.7,3.9,2.7,7.5c0,3.6-0.9,6.1-2.7,7.4c-1.8,1.4-5.3,2-10.6,2
		C566.8,166.8,563.2,166.2,561.4,164.8z M560.1,228.4v-56.8l23.9-3v59.8H560.1z"/>
	<path class="st4" d="M601,222.4c-5-5.2-7.5-13.2-7.5-23.9c0-10.7,2.5-18.6,7.5-23.9c5-5.2,13.1-7.8,24.2-7.8
		c11.2,0,19.2,2.6,24.2,7.8c5,5.2,7.5,13.2,7.5,23.9c0,10.7-2.5,18.6-7.5,23.9c-5,5.2-13.1,7.8-24.2,7.8
		C614.1,230.2,606,227.6,601,222.4z M619.3,189.3v23.4h3.7c2.9,0,5-0.3,6.3-0.9s2-2,2-4.1v-23.4h-3.7c-2.9,0-5,0.3-6.3,0.9
		C619.9,185.8,619.3,187.2,619.3,189.3z"/>
</g>
<g>
	<path class="st2" d="M28.4,186.9c-1,4.1-1.8,8.2-2.1,12.3c-0.3,4.1-0.1,8.2,1.1,11.9c0.3,0.9,0.6,1.8,1.1,2.7
		c0.4,0.9,0.9,1.7,1.4,2.5c1.1,1.5,2.4,2.9,4,3.9c1.6,1.1,3.3,1.9,5.1,2.5c1.8,0.6,3.8,1,5.8,1.2c3.9,0.5,8.1,0.4,12.1-0.2
		c0.5-0.1,1-0.2,1.5-0.3c0.5-0.1,1-0.2,1.5-0.3l3.1-0.7l6.2-1.4c2-0.5,4.1-1.2,6.1-1.7l3-0.9l1.5-0.4l1.5-0.5l6-2.1
		c1-0.4,2-0.7,3-1.1l2.9-1.2l5.9-2.4l5.7-2.6c3.9-1.7,7.6-3.7,11.3-5.6l1.4-0.7l1.4-0.8l2.7-1.6c1.8-1.1,3.7-2.1,5.5-3.2
		c3.5-2.3,7.2-4.4,10.6-6.9c1.7-1.2,3.5-2.4,5.2-3.6l5.1-3.8c0.8-0.6,1.7-1.3,2.5-1.9l2.5-2l4.9-4l4.8-4.2c0.8-0.7,1.6-1.4,2.4-2.1
		l2.3-2.2c1.5-1.5,3.1-2.9,4.6-4.3l4.5-4.5c23.9-24,43.7-51.9,59.9-81.7c1-1.9,2-3.7,3-5.6c0.9-1.9,1.9-3.8,2.9-5.7
		c0.9-1.9,1.8-3.8,2.7-5.7c0.9-1.9,1.8-3.9,2.5-5.7c1.3-3.7,2.1-7.7,1.9-11.5c-0.2-3.8-1.4-7.5-3.8-10c-2.4-2.6-6.1-3.9-10-4.3
		c-0.5-0.1-1-0.1-1.5-0.1c-0.5,0-1-0.1-1.5,0c-0.5,0-0.9,0-1.4,0.1c-0.5,0-1,0.1-1.5,0.2c-2,0.3-4.1,0.6-6.1,1.1
		c-4.1,0.9-8.2,2-12.2,3.3c-4,1.3-8,2.7-11.8,4.4c-0.8,0.4-1.8,0-2.2-0.9c-0.3-0.6-0.1-1.4,0.3-1.8l0.4-0.4c3.3-3.3,7-6.2,10.7-8.9
		c3.8-2.6,7.8-5.1,12-7.3c2.1-1.1,4.3-2.2,6.9-3l1-0.3l1.1-0.3l1.1-0.3l1.3-0.3c0.9-0.2,1.6-0.3,2.4-0.4c0.7-0.1,1.5-0.2,2.3-0.3
		c3.1-0.3,6.6-0.1,10.4,0.9c3.8,1,7.8,2.8,11.4,5.7c3.5,2.9,6.4,6.7,8.2,10.5c1.9,3.8,3,7.7,3.7,11.3c0.7,3.7,0.8,7.2,0.6,10.6
		c-0.2,3.4-0.6,6.7-1.4,10.1c-0.2,0.8-0.4,1.7-0.7,2.5l-0.2,0.6l-0.1,0.5l-0.2,0.9c-0.3,1.1-0.6,2.3-1,3.4l-1,3.4l-1.1,3.3
		c-1.4,4.4-2.9,8.8-4.6,13.1c-6.6,17.2-15,33.6-25,49.2c-5,7.8-10.4,15.4-16.2,22.7c-2.9,3.7-6,7.2-9,10.8c-1.5,1.8-3.2,3.5-4.8,5.2
		c-1.6,1.7-3.2,3.4-4.9,5.1l-5,5c-1.7,1.6-3.5,3.2-5.2,4.8l-2.6,2.4c-0.9,0.8-1.8,1.5-2.7,2.3l-5.5,4.6
		c-7.5,5.8-15.2,11.5-23.5,16.4c-16.3,10-34.3,17.8-52.9,22.7c-9.3,2.5-18.8,4-28.3,5l-7,0.4l-3.5,0.2l-0.9,0
		c-0.2,0-0.9,0.1-1.3,0.1c-0.9,0-1.6,0.1-2.4,0.1c-3,0-5.9-0.2-8.8-0.6c-2.9-0.4-5.8-0.9-8.8-1.8c-3-0.9-6-2-8.9-3.6
		c-3-1.6-5.9-3.5-8.5-6.1c-2.6-2.5-4.7-5.5-6.3-8.7c-0.7-1.6-1.4-3.2-1.8-4.8c-0.5-1.6-0.7-3.2-0.9-4.7c-0.7-6.1,0.7-11.4,2.3-16.1
		c1.8-4.6,4.1-8.7,6.8-12.5l0.3-0.5c0.5-0.7,1.6-0.9,2.3-0.4C28.4,185.6,28.6,186.3,28.4,186.9z"/>
</g>
</svg>
