<svg id="Layer_1" data-name="Layer 1" xmlns="http://www.w3.org/2000/svg" viewBox="0 0 653.73 234.58"><defs><style>.cls-1{fill:#fff;}.cls-2{fill:#3f5fac;}.cls-3{fill:#5777ba;}.cls-4{font-size:119.62px;fill:#fcb316;font-family:ChangaOne, Changa One;}</style></defs><title>Artboard 1</title><ellipse class="cls-1" cx="45.64" cy="187.73" rx="13.08" ry="6.29" transform="translate(-108.82 71.68) rotate(-39.42)"/><path class="cls-2" d="M89.66,89.66C26.72,152.6-11.93,216,3.33,231.25L231.25,3.33C216-11.93,152.6,26.72,89.66,89.66Z"/><circle class="cls-3" cx="118.93" cy="115.65" r="107.46" transform="translate(-46.95 117.97) rotate(-45)"/><path class="cls-2" d="M144.92,144.92C207.86,82,246.51,18.59,231.25,3.33L3.33,231.25C18.59,246.51,82,207.86,144.92,144.92Z"/><circle class="cls-2" cx="106.06" cy="47.19" r="16"/><circle class="cls-2" cx="83.06" cy="100.69" r="10.5"/><circle class="cls-2" cx="169.68" cy="177.48" r="14.63"/><circle class="cls-2" cx="103.89" cy="202.36" r="6.33"/><circle class="cls-2" cx="37.89" cy="136.77" r="6.33"/><circle class="cls-2" cx="199.31" cy="108.94" r="8.25"/><text class="cls-4" transform="translate(263.89 101.58)">Rocket<tspan x="0" y="98.46">Studio</tspan></text></svg>