<?xml version="1.0" encoding="utf-8"?>
<!-- Generator: Adobe Illustrator 21.1.0, SVG Export Plug-In . SVG Version: 6.00 Build 0)  -->
<svg version="1.1" id="Layer_1" xmlns="http://www.w3.org/2000/svg" xmlns:xlink="http://www.w3.org/1999/xlink" x="0px" y="0px"
	 viewBox="0 0 265 249.2" style="enable-background:new 0 0 265 249.2;" xml:space="preserve">
<style type="text/css">
	.st0{fill:#E8E9EA;}
	.st1{fill:#F4F4F4;}
	.st2{fill:#E6E7E8;}
</style>
<title>Artboard 1</title>
<path class="st0" d="M187.4,123c3.8,2.8,2.8,17.4,2.3,17.8c-0.7,0.6-1.9-9.1-5.7-11.9s-9.3-3.1-7.2-5.9S183.6,120.1,187.4,123z"/>
<path class="st0" d="M163.2,132.9c-0.6,4.7,10.7,13.9,11.4,13.9c0.9-0.1-5.3-7.7-4.8-12.4s4.1-8.9,0.6-9.3S163.7,128.2,163.2,132.9z
	"/>
<path class="st0" d="M179.7,136.9c1.5-5.3,2.1-10.8,1.7-16.3l-14.6,6.3C170.5,131.1,174.9,134.4,179.7,136.9z"/>
<path class="st0" d="M159.8,90.8c-2.9,1.2-4,5.8-3.3,11.9l14.2-6.1C166.8,91.9,162.7,89.6,159.8,90.8z"/>
<path class="st0" d="M163.7,123.2l17-7.3c-0.4-2-1-4-1.9-5.9l-18.1,7.8C161.6,119.7,162.6,121.5,163.7,123.2z"/>
<path class="st0" d="M157.3,107.5c0.5,2,1,4,1.7,5.9l17.8-7.7c-1-1.8-2-3.6-3.2-5.3L157.3,107.5z"/>
<path class="st1" d="M170.7,96.6l-14.2,6.1c0.2,1.6,0.4,3.2,0.8,4.8l16.3-7.1C172.8,99.1,171.8,97.8,170.7,96.6z"/>
<path class="st1" d="M160.7,117.8l18.1-7.8c-0.6-1.5-1.3-2.9-2-4.2l-17.8,7.7C159.5,114.9,160.1,116.3,160.7,117.8z"/>
<path class="st1" d="M166.8,127l14.6-6.3c-0.1-1.6-0.4-3.2-0.7-4.8l-17,7.3C164.6,124.5,165.6,125.8,166.8,127z"/>
<path class="st0" d="M66.8,149.9c3.8,2.8,2.8,17.4,2.3,17.8c-0.7,0.6-1.9-9.1-5.7-11.9s-9.3-3.1-7.2-5.9S63,147.1,66.8,149.9z"/>
<path class="st0" d="M42.7,159.8c-0.5,4.7,10.7,13.9,11.4,13.9c1-0.1-5.3-7.7-4.8-12.4s4.1-8.9,0.6-9.3S43.2,155.1,42.7,159.8z"/>
<path class="st0" d="M59.2,163.9c1.5-5.3,2.1-10.8,1.7-16.3l-14.6,6.3C49.9,158,54.3,161.4,59.2,163.9z"/>
<path class="st0" d="M39.3,117.8c-2.9,1.2-4,5.8-3.3,11.9l14.2-6.1C46.2,118.8,42.2,116.5,39.3,117.8z"/>
<path class="st0" d="M43.2,150.1l17-7.3c-0.4-2-1-4-1.9-5.9l-18.1,7.8C41,146.6,42,148.4,43.2,150.1z"/>
<path class="st0" d="M36.8,134.4c0.5,2,1,4,1.7,5.9l17.8-7.7c-1-1.8-2-3.6-3.2-5.3L36.8,134.4z"/>
<path class="st1" d="M50.2,123.5L36,129.6c0.2,1.6,0.4,3.2,0.8,4.8l16.3-7.1C52.2,126,51.3,124.7,50.2,123.5z"/>
<path class="st1" d="M40.2,144.7l18.1-7.8c-0.6-1.5-1.3-2.9-2-4.2l-17.8,7.7C39,141.8,39.6,143.3,40.2,144.7z"/>
<path class="st1" d="M46.2,153.9l14.6-6.3c-0.1-1.6-0.4-3.2-0.7-4.8l-17,7.3C44.1,151.4,45.1,152.7,46.2,153.9z"/>
<path class="st0" d="M102.6,67.6c0.3,4.7-11.5,13.3-12.2,13.2c-0.9-0.1,5.7-7.3,5.5-12.1s-3.6-9.1-0.1-9.3S102.3,62.9,102.6,67.6z"
	/>
<path class="st0" d="M79.4,55.5c-4,2.6-3.8,17.2-3.3,17.7c0.7,0.7,2.5-9,6.4-11.6s9.4-2.6,7.5-5.5S83.4,52.9,79.4,55.5z"/>
<path class="st0" d="M86.9,70.8c5-2.2,9.6-5.3,13.5-9.2l-14.3-7.2C85.5,59.9,85.7,65.4,86.9,70.8z"/>
<path class="st0" d="M109.5,25.9c-2.8-1.4-7,0.7-11.2,5.1l13.8,7C113.1,31.9,112.3,27.3,109.5,25.9z"/>
<path class="st0" d="M87.2,49.7l16.5,8.3c1.3-1.6,2.4-3.4,3.3-5.2l-17.6-8.9C88.5,45.8,87.8,47.7,87.2,49.7z"/>
<path class="st0" d="M95.1,34.7c-1.2,1.6-2.4,3.4-3.5,5.1l17.3,8.7c0.8-1.9,1.4-3.9,2-5.8L95.1,34.7z"/>
<path class="st1" d="M112.1,37.9L98.3,31c-1.1,1.2-2.2,2.4-3.1,3.7l15.9,8C111.5,41.1,111.8,39.5,112.1,37.9z"/>
<path class="st1" d="M89.4,43.9l17.6,8.9c0.7-1.4,1.4-2.9,2-4.3l-17.3-8.7C90.9,41.1,90.1,42.5,89.4,43.9z"/>
<path class="st1" d="M86.2,54.5l14.2,7.2c1.2-1.1,2.2-2.3,3.2-3.6l-16.5-8.3C86.8,51.2,86.4,52.8,86.2,54.5z"/>
<path class="st0" d="M204.8,208.9c0.3,4.7-11.5,13.3-12.2,13.2c-0.9-0.1,5.7-7.4,5.5-12.1s-3.6-9.1-0.1-9.3S204.5,204.2,204.8,208.9
	z"/>
<path class="st0" d="M181.7,196.8c-4,2.6-3.8,17.2-3.3,17.7c0.7,0.7,2.5-9,6.4-11.6s9.5-2.5,7.5-5.5S185.6,194.2,181.7,196.8z"/>
<path class="st0" d="M189.2,212.1c5-2.2,9.6-5.3,13.5-9.2l-14.2-7.2C187.7,201.2,188,206.7,189.2,212.1z"/>
<path class="st0" d="M211.7,167.2c-2.8-1.4-7,0.7-11.2,5.1l13.8,7C215.4,173.2,214.5,168.6,211.7,167.2z"/>
<path class="st0" d="M189.4,191l16.6,8.3c1.3-1.6,2.4-3.4,3.3-5.2l-17.6-8.9C190.8,187.1,190,189,189.4,191z"/>
<path class="st0" d="M197.4,176c-1.2,1.6-2.4,3.4-3.5,5.1l17.3,8.7c0.8-1.9,1.4-3.9,2-5.8L197.4,176z"/>
<path class="st1" d="M214.4,179.2l-13.8-7c-1.1,1.2-2.2,2.4-3.1,3.7l15.9,8C213.7,182.4,214.1,180.8,214.4,179.2z"/>
<path class="st1" d="M191.6,185.2l17.6,8.9c0.7-1.4,1.4-2.9,2-4.3l-17.3-8.7C193.1,182.4,192.4,183.8,191.6,185.2z"/>
<path class="st1" d="M188.5,195.7l14.2,7.2c1.2-1.1,2.2-2.4,3.2-3.6l-16.5-8.3C189,192.6,188.7,194.1,188.5,195.7z"/>
<circle class="st2" cx="145.9" cy="31" r="3.7"/>
<circle class="st2" cx="28.2" cy="25.5" r="3.7"/>
<circle class="st2" cx="181.9" cy="63.4" r="3.7"/>
<circle class="st2" cx="138.6" cy="215.7" r="3.7"/>
<circle class="st2" cx="232.9" cy="62.6" r="3.7"/>
<circle class="st2" cx="42.6" cy="73.2" r="3.7"/>
<circle class="st2" cx="214.8" cy="116.6" r="3.7"/>
<circle class="st2" cx="109" cy="170.5" r="3.7"/>
<circle class="st2" cx="61" cy="211.3" r="3.7"/>
<circle class="st2" cx="107" cy="110.1" r="3.7"/>
</svg>
